<svg xmlns="http://www.w3.org/2000/svg" width="22.807" height="22.958" viewBox="0 0 22.807 22.958"><path d="M15.679,0H7.127A7.152,7.152,0,0,0,0,7.174v8.609a7.152,7.152,0,0,0,7.127,7.174h8.552a7.152,7.152,0,0,0,7.127-7.174V7.174A7.152,7.152,0,0,0,15.679,0Zm4.989,15.784a5.011,5.011,0,0,1-4.989,5.022H7.127a5.011,5.011,0,0,1-4.989-5.022V7.174A5.011,5.011,0,0,1,7.127,2.152h8.552a5.011,5.011,0,0,1,4.989,5.022Z" fill="#fff"/><g transform="translate(5.664 5.739)"><path d="M133.74,128a5.739,5.739,0,1,0,5.74,5.739A5.74,5.74,0,0,0,133.74,128Zm0,9.327a3.587,3.587,0,1,1,3.587-3.587A3.592,3.592,0,0,1,133.74,137.327Z" transform="translate(-128 -128)" fill="#fff"/></g><g transform="translate(16.765 4.544)"><ellipse cx="0.765" cy="0.765" rx="0.765" ry="0.765" fill="#fff"/></g></svg>