<svg xmlns="http://www.w3.org/2000/svg" width="27.783" height="15.852" viewBox="0 0 27.783 15.852"><g transform="translate(0 0)"><path d="M27.535,124.063a12.386,12.386,0,0,0-2.759-3.192c-2.327-2.16-2.014-1.809.788-5.545,1.707-2.275,2.39-3.664,2.176-4.258-.2-.566-1.459-.417-1.459-.417l-4.175.024a.955.955,0,0,0-.54.1,1.176,1.176,0,0,0-.368.448,24.182,24.182,0,0,1-1.544,3.258c-1.86,3.159-2.6,3.325-2.909,3.129-.707-.457-.53-1.837-.53-2.817,0-3.061.464-4.338-.9-4.668a7.168,7.168,0,0,0-1.95-.195,9.019,9.019,0,0,0-3.466.354c-.476.233-.842.752-.618.781a1.872,1.872,0,0,1,1.233.62,4.022,4.022,0,0,1,.413,1.891s.247,3.6-.575,4.051c-.564.307-1.337-.319-3-3.187a26.724,26.724,0,0,1-1.492-3.091,1.233,1.233,0,0,0-.344-.464,1.731,1.731,0,0,0-.643-.259L.9,110.65s-.6.017-.814.276c-.194.231-.016.707-.016.707S3.183,118.9,6.7,122.57a9.536,9.536,0,0,0,6.892,3.14h1.66a1.4,1.4,0,0,0,.757-.332,1.209,1.209,0,0,0,.227-.729s-.033-2.228,1-2.556c1.019-.323,2.329,2.153,3.716,3.107a2.629,2.629,0,0,0,1.846.563l3.711-.052S28.456,125.59,27.535,124.063Z" transform="translate(0 -109.924)" fill="#fff"/></g></svg>