<svg xmlns="http://www.w3.org/2000/svg" width="36.344" height="28.044" viewBox="0 0 36.344 28.044"><path d="M35.968,67.848s-.376-2.741-1.441-3.952a4.77,4.77,0,0,0-3.634-1.657c-5.076-.382-12.72-.446-12.72-.446h0s-7.645.064-12.72.446A5.02,5.02,0,0,0,1.817,63.9C.689,65.107.376,67.848.376,67.848A64.839,64.839,0,0,0,0,74.349v3a62.757,62.757,0,0,0,.376,6.437s.376,2.741,1.441,3.952c1.379,1.593,3.2,1.53,4.01,1.721,2.882.319,12.344.382,12.344.382s7.645,0,12.72-.446a5.02,5.02,0,0,0,3.634-1.657c1.065-1.211,1.441-3.952,1.441-3.952a64.423,64.423,0,0,0,.376-6.437v-3a64.838,64.838,0,0,0-.376-6.5" transform="translate(0 -61.793)" fill="#d8362a"/><path d="M194.207,166.841v13.831l11.906-6.756Z" transform="translate(-180.422 -159.256)" fill="#fff"/></svg>