<svg style="fill:#ffffff" viewBox="0 -83 512 512" width="512pt" xmlns="http://www.w3.org/2000/svg"><path d="m492 76c-30.878906 0-56-25.121094-56-56 0-11.046875-8.953125-20-20-20h-320c-11.046875 0-20 8.953125-20 20 0 30.878906-25.121094 56-56 56-11.046875 0-20 8.953125-20 20v154c0 11.046875 8.953125 20 20 20 30.878906 0 56 25.121094 56 56 0 11.046875 8.953125 20 20 20h320c11.046875 0 20-8.953125 20-20 0-30.878906 25.121094-56 56-56 11.046875 0 20-8.953125 20-20v-154c0-11.046875-8.953125-20-20-20zm-20 156.097656c-36.914062 7.851563-66.050781 36.988282-73.90625 73.902344h-284.1875c-7.855469-36.914062-36.992188-66.050781-73.90625-73.902344v-118.195312c36.914062-7.851563 66.050781-36.988282 73.90625-73.902344h284.1875c7.855469 36.914062 36.992188 66.050781 73.90625 73.902344zm-132-117.097656h-168c-31.980469 0-58 26.019531-58 58s26.019531 58 58 58h168c31.980469 0 58-26.019531 58-58s-26.019531-58-58-58zm0 76h-168c-9.925781 0-18-8.074219-18-18s8.074219-18 18-18h168c9.925781 0 18 8.074219 18 18s-8.074219 18-18 18zm0 0"/></svg>